<svg version="1.1" id="Capa_1" xmlns="http://www.w3.org/2000/svg" x="0" y="0" viewBox="0 0 587.697 587.697" xml:space="preserve"><g id="flat_15_"><path d="M0 0v162.123h40.531l14.186-78.184c3.506-19.283 20.306-33.286 39.903-33.276h67.504V494.86c0 13.081-8.37 24.703-20.782 28.838L70.93 547.165v40.531h283.716v-40.531l-70.412-23.467c-12.413-4.134-20.782-15.756-20.782-28.838V50.663h67.504c19.597-.01 36.397 13.993 39.903 33.276l14.186 78.184h40.531V0H0z" fill="#e34b87"/><path fill="#87ced9" d="M547.166 121.592h40.531L526.9 0l-60.796 121.592h40.531v344.512h-40.531L526.9 587.697l60.797-121.593h-40.531z"/><path d="M162.123 494.861c0 13.081-8.37 24.703-20.782 28.838l-70.412 23.467v40.531h283.716v-40.531l-70.412-23.467c-12.413-4.134-20.782-15.756-20.782-28.838v-246.61L162.123 349.578v145.283z" fill="#d94881"/><path fill="#71c4d1" d="M547.166 283.716l-40.531 40.53v141.858h-40.531L526.9 587.697l60.797-121.593h-40.531z"/></g></svg>